<mxfile host="app.diagrams.net" agent="Mozilla/5.0 (Windows NT 10.0; Win64; x64; rv:131.0) Gecko/20100101 Firefox/131.0" version="24.7.17">
  <diagram name="Page-1" id="c4acf3e9-155e-7222-9cf6-157b1a14988f">
    <mxGraphModel grid="1" page="1" gridSize="10" guides="1" tooltips="1" connect="1" arrows="1" fold="1" pageScale="1" pageWidth="850" pageHeight="1100" background="none" math="0" shadow="0">
      <root>
        <mxCell id="0" />
        <mxCell id="1" parent="0" />
        <mxCell id="VCItYeYiN6JhUVZrUM5o-1" value="&lt;div&gt;Utente&lt;/div&gt;" style="shape=umlActor;verticalLabelPosition=bottom;verticalAlign=top;html=1;outlineConnect=0;" vertex="1" parent="1">
          <mxGeometry x="100" y="380" width="30" height="60" as="geometry" />
        </mxCell>
        <mxCell id="VCItYeYiN6JhUVZrUM5o-3" value="Gioca partita multiplayer" style="ellipse;whiteSpace=wrap;html=1;" vertex="1" parent="1">
          <mxGeometry x="100" y="530" width="120" height="80" as="geometry" />
        </mxCell>
        <mxCell id="VCItYeYiN6JhUVZrUM5o-4" value="Gioca partita contro AI" style="ellipse;whiteSpace=wrap;html=1;" vertex="1" parent="1">
          <mxGeometry x="305" y="370" width="120" height="80" as="geometry" />
        </mxCell>
        <mxCell id="VCItYeYiN6JhUVZrUM5o-5" value="&lt;div&gt;Visualizza leaderboard&lt;/div&gt;" style="ellipse;whiteSpace=wrap;html=1;" vertex="1" parent="1">
          <mxGeometry x="-130" y="490" width="120" height="80" as="geometry" />
        </mxCell>
        <mxCell id="VCItYeYiN6JhUVZrUM5o-6" value="&lt;div&gt;Condividi punteggio su social network&lt;/div&gt;" style="ellipse;whiteSpace=wrap;html=1;" vertex="1" parent="1">
          <mxGeometry x="310" y="229" width="120" height="80" as="geometry" />
        </mxCell>
        <mxCell id="VCItYeYiN6JhUVZrUM5o-9" value="&lt;div&gt;Crea torneo&lt;/div&gt;" style="ellipse;whiteSpace=wrap;html=1;" vertex="1" parent="1">
          <mxGeometry x="-190" y="330" width="120" height="80" as="geometry" />
        </mxCell>
        <mxCell id="VCItYeYiN6JhUVZrUM5o-10" value="&lt;div&gt;Esegui l&#39;autenticazione&lt;/div&gt;" style="ellipse;whiteSpace=wrap;html=1;" vertex="1" parent="1">
          <mxGeometry x="120" y="180" width="120" height="80" as="geometry" />
        </mxCell>
        <mxCell id="VCItYeYiN6JhUVZrUM5o-19" value="&lt;div&gt;Sistema di autenticazione&lt;/div&gt;" style="shape=umlActor;verticalLabelPosition=bottom;verticalAlign=top;html=1;outlineConnect=0;" vertex="1" parent="1">
          <mxGeometry x="310" y="40" width="30" height="60" as="geometry" />
        </mxCell>
        <mxCell id="VCItYeYiN6JhUVZrUM5o-20" value="" style="endArrow=none;html=1;rounded=0;entryX=0.5;entryY=1;entryDx=0;entryDy=0;" edge="1" parent="1" source="VCItYeYiN6JhUVZrUM5o-1" target="VCItYeYiN6JhUVZrUM5o-10">
          <mxGeometry width="50" height="50" relative="1" as="geometry">
            <mxPoint x="560" y="350" as="sourcePoint" />
            <mxPoint x="610" y="300" as="targetPoint" />
          </mxGeometry>
        </mxCell>
        <mxCell id="VCItYeYiN6JhUVZrUM5o-21" value="" style="endArrow=none;html=1;rounded=0;exitX=1;exitY=0;exitDx=0;exitDy=0;" edge="1" parent="1" source="VCItYeYiN6JhUVZrUM5o-10" target="VCItYeYiN6JhUVZrUM5o-19">
          <mxGeometry width="50" height="50" relative="1" as="geometry">
            <mxPoint x="560" y="350" as="sourcePoint" />
            <mxPoint x="610" y="300" as="targetPoint" />
          </mxGeometry>
        </mxCell>
        <mxCell id="VCItYeYiN6JhUVZrUM5o-22" value="&lt;div&gt;Interfacciati con social network&lt;/div&gt;" style="ellipse;whiteSpace=wrap;html=1;" vertex="1" parent="1">
          <mxGeometry x="540" y="220" width="120" height="80" as="geometry" />
        </mxCell>
        <mxCell id="VCItYeYiN6JhUVZrUM5o-25" value="" style="endArrow=none;html=1;rounded=0;entryX=0.017;entryY=0.638;entryDx=0;entryDy=0;entryPerimeter=0;" edge="1" parent="1" source="VCItYeYiN6JhUVZrUM5o-1" target="VCItYeYiN6JhUVZrUM5o-6">
          <mxGeometry width="50" height="50" relative="1" as="geometry">
            <mxPoint x="560" y="410" as="sourcePoint" />
            <mxPoint x="610" y="360" as="targetPoint" />
          </mxGeometry>
        </mxCell>
        <mxCell id="VCItYeYiN6JhUVZrUM5o-26" value="Recupera password" style="ellipse;whiteSpace=wrap;html=1;" vertex="1" parent="1">
          <mxGeometry x="50" y="20" width="120" height="80" as="geometry" />
        </mxCell>
        <mxCell id="VCItYeYiN6JhUVZrUM5o-28" value="" style="endArrow=none;dashed=1;html=1;rounded=0;entryX=0.5;entryY=1;entryDx=0;entryDy=0;startArrow=open;startFill=0;" edge="1" parent="1" source="VCItYeYiN6JhUVZrUM5o-10" target="VCItYeYiN6JhUVZrUM5o-26">
          <mxGeometry width="50" height="50" relative="1" as="geometry">
            <mxPoint x="560" y="410" as="sourcePoint" />
            <mxPoint x="610" y="360" as="targetPoint" />
          </mxGeometry>
        </mxCell>
        <mxCell id="VCItYeYiN6JhUVZrUM5o-29" value="&lt;div&gt;&amp;lt;&amp;lt;extends&amp;gt;&amp;gt;&lt;/div&gt;" style="edgeLabel;html=1;align=center;verticalAlign=middle;resizable=0;points=[];" vertex="1" connectable="0" parent="VCItYeYiN6JhUVZrUM5o-28">
          <mxGeometry x="-0.2959" y="3" relative="1" as="geometry">
            <mxPoint as="offset" />
          </mxGeometry>
        </mxCell>
        <mxCell id="iHfhjThB8S9JIC7WLU-c-1" value="&lt;div&gt;Fallisci autenticazione&lt;/div&gt;" style="ellipse;whiteSpace=wrap;html=1;" vertex="1" parent="1">
          <mxGeometry x="-110" y="60" width="120" height="80" as="geometry" />
        </mxCell>
        <mxCell id="iHfhjThB8S9JIC7WLU-c-2" value="" style="endArrow=none;dashed=1;html=1;rounded=0;entryX=0.5;entryY=1;entryDx=0;entryDy=0;startArrow=open;startFill=0;" edge="1" parent="1" source="VCItYeYiN6JhUVZrUM5o-10" target="iHfhjThB8S9JIC7WLU-c-1">
          <mxGeometry width="50" height="50" relative="1" as="geometry">
            <mxPoint x="186" y="190" as="sourcePoint" />
            <mxPoint x="180" y="120" as="targetPoint" />
          </mxGeometry>
        </mxCell>
        <mxCell id="iHfhjThB8S9JIC7WLU-c-3" value="&lt;div&gt;&amp;lt;&amp;lt;extends&amp;gt;&amp;gt;&lt;/div&gt;" style="edgeLabel;html=1;align=center;verticalAlign=middle;resizable=0;points=[];" connectable="0" vertex="1" parent="iHfhjThB8S9JIC7WLU-c-2">
          <mxGeometry x="-0.2959" y="3" relative="1" as="geometry">
            <mxPoint as="offset" />
          </mxGeometry>
        </mxCell>
        <mxCell id="iHfhjThB8S9JIC7WLU-c-4" value="" style="endArrow=none;html=1;rounded=0;" edge="1" parent="1" target="VCItYeYiN6JhUVZrUM5o-4">
          <mxGeometry width="50" height="50" relative="1" as="geometry">
            <mxPoint x="130" y="410" as="sourcePoint" />
            <mxPoint x="450" y="340" as="targetPoint" />
          </mxGeometry>
        </mxCell>
        <mxCell id="iHfhjThB8S9JIC7WLU-c-5" value="" style="endArrow=none;html=1;rounded=0;" edge="1" parent="1" source="VCItYeYiN6JhUVZrUM5o-1" target="VCItYeYiN6JhUVZrUM5o-3">
          <mxGeometry width="50" height="50" relative="1" as="geometry">
            <mxPoint x="128" y="413.50286906624933" as="sourcePoint" />
            <mxPoint x="343.03999999999996" y="392.03999999999996" as="targetPoint" />
          </mxGeometry>
        </mxCell>
        <mxCell id="iHfhjThB8S9JIC7WLU-c-7" value="" style="endArrow=none;html=1;rounded=0;entryX=1;entryY=0;entryDx=0;entryDy=0;" edge="1" parent="1" source="VCItYeYiN6JhUVZrUM5o-1" target="VCItYeYiN6JhUVZrUM5o-5">
          <mxGeometry width="50" height="50" relative="1" as="geometry">
            <mxPoint x="400" y="390" as="sourcePoint" />
            <mxPoint x="340" y="550" as="targetPoint" />
          </mxGeometry>
        </mxCell>
        <mxCell id="iHfhjThB8S9JIC7WLU-c-8" value="" style="endArrow=none;html=1;rounded=0;exitX=0.967;exitY=0.638;exitDx=0;exitDy=0;exitPerimeter=0;" edge="1" parent="1" source="VCItYeYiN6JhUVZrUM5o-9" target="VCItYeYiN6JhUVZrUM5o-1">
          <mxGeometry width="50" height="50" relative="1" as="geometry">
            <mxPoint x="400" y="390" as="sourcePoint" />
            <mxPoint x="450" y="340" as="targetPoint" />
          </mxGeometry>
        </mxCell>
        <mxCell id="iHfhjThB8S9JIC7WLU-c-9" value="Sistema di gestione delle partite" style="shape=umlActor;verticalLabelPosition=bottom;verticalAlign=top;html=1;outlineConnect=0;" vertex="1" parent="1">
          <mxGeometry x="470" y="600" width="30" height="60" as="geometry" />
        </mxCell>
        <mxCell id="iHfhjThB8S9JIC7WLU-c-10" value="" style="endArrow=none;html=1;rounded=0;exitX=1;exitY=0.5;exitDx=0;exitDy=0;" edge="1" parent="1" source="VCItYeYiN6JhUVZrUM5o-4" target="iHfhjThB8S9JIC7WLU-c-9">
          <mxGeometry width="50" height="50" relative="1" as="geometry">
            <mxPoint x="450" y="450" as="sourcePoint" />
            <mxPoint x="610" y="330.8571428571429" as="targetPoint" />
          </mxGeometry>
        </mxCell>
        <mxCell id="iHfhjThB8S9JIC7WLU-c-11" value="" style="endArrow=none;html=1;rounded=0;exitX=1;exitY=0.5;exitDx=0;exitDy=0;" edge="1" parent="1" source="VCItYeYiN6JhUVZrUM5o-3" target="iHfhjThB8S9JIC7WLU-c-9">
          <mxGeometry width="50" height="50" relative="1" as="geometry">
            <mxPoint x="430" y="520" as="sourcePoint" />
            <mxPoint x="610" y="338.80672802284994" as="targetPoint" />
          </mxGeometry>
        </mxCell>
        <mxCell id="iHfhjThB8S9JIC7WLU-c-12" value="&lt;div&gt;Altro utente&lt;/div&gt;" style="shape=umlActor;verticalLabelPosition=bottom;verticalAlign=top;html=1;outlineConnect=0;" vertex="1" parent="1">
          <mxGeometry x="260" y="610" width="30" height="60" as="geometry" />
        </mxCell>
        <mxCell id="iHfhjThB8S9JIC7WLU-c-13" value="" style="endArrow=none;html=1;rounded=0;exitX=1;exitY=1;exitDx=0;exitDy=0;" edge="1" parent="1" source="VCItYeYiN6JhUVZrUM5o-3" target="iHfhjThB8S9JIC7WLU-c-12">
          <mxGeometry width="50" height="50" relative="1" as="geometry">
            <mxPoint x="450" y="450" as="sourcePoint" />
            <mxPoint x="500" y="400" as="targetPoint" />
          </mxGeometry>
        </mxCell>
        <mxCell id="iHfhjThB8S9JIC7WLU-c-16" value="&lt;div&gt;Sistema AI&lt;/div&gt;" style="shape=umlActor;verticalLabelPosition=bottom;verticalAlign=top;html=1;outlineConnect=0;" vertex="1" parent="1">
          <mxGeometry x="480" y="330" width="30" height="60" as="geometry" />
        </mxCell>
        <mxCell id="iHfhjThB8S9JIC7WLU-c-17" value="" style="endArrow=none;html=1;rounded=0;exitX=1;exitY=0;exitDx=0;exitDy=0;" edge="1" parent="1" source="VCItYeYiN6JhUVZrUM5o-4" target="iHfhjThB8S9JIC7WLU-c-16">
          <mxGeometry width="50" height="50" relative="1" as="geometry">
            <mxPoint x="470" y="200" as="sourcePoint" />
            <mxPoint x="546" y="59" as="targetPoint" />
          </mxGeometry>
        </mxCell>
        <mxCell id="iHfhjThB8S9JIC7WLU-c-18" value="&lt;div&gt;Controlla credenziali&lt;/div&gt;" style="ellipse;whiteSpace=wrap;html=1;" vertex="1" parent="1">
          <mxGeometry x="456" y="50" width="120" height="80" as="geometry" />
        </mxCell>
        <mxCell id="iHfhjThB8S9JIC7WLU-c-19" value="" style="endArrow=none;html=1;rounded=0;entryX=0;entryY=0.5;entryDx=0;entryDy=0;" edge="1" parent="1" source="VCItYeYiN6JhUVZrUM5o-19" target="iHfhjThB8S9JIC7WLU-c-18">
          <mxGeometry width="50" height="50" relative="1" as="geometry">
            <mxPoint x="400" y="350" as="sourcePoint" />
            <mxPoint x="450" y="300" as="targetPoint" />
          </mxGeometry>
        </mxCell>
        <mxCell id="iHfhjThB8S9JIC7WLU-c-20" value="" style="endArrow=none;dashed=1;html=1;rounded=0;entryX=1;entryY=1;entryDx=0;entryDy=0;startArrow=open;startFill=0;exitX=0.217;exitY=0.125;exitDx=0;exitDy=0;exitPerimeter=0;" edge="1" parent="1" source="VCItYeYiN6JhUVZrUM5o-22" target="iHfhjThB8S9JIC7WLU-c-18">
          <mxGeometry width="50" height="50" relative="1" as="geometry">
            <mxPoint x="561" y="211" as="sourcePoint" />
            <mxPoint x="384" y="150" as="targetPoint" />
          </mxGeometry>
        </mxCell>
        <mxCell id="iHfhjThB8S9JIC7WLU-c-21" value="&lt;div&gt;&amp;lt;&amp;lt;includes&amp;gt;&amp;gt;&lt;/div&gt;" style="edgeLabel;html=1;align=center;verticalAlign=middle;resizable=0;points=[];" connectable="0" vertex="1" parent="iHfhjThB8S9JIC7WLU-c-20">
          <mxGeometry x="-0.2959" y="3" relative="1" as="geometry">
            <mxPoint as="offset" />
          </mxGeometry>
        </mxCell>
        <mxCell id="iHfhjThB8S9JIC7WLU-c-22" value="" style="endArrow=none;dashed=1;html=1;rounded=0;entryX=1;entryY=0;entryDx=0;entryDy=0;startArrow=open;startFill=0;exitX=0;exitY=0.5;exitDx=0;exitDy=0;" edge="1" parent="1" source="VCItYeYiN6JhUVZrUM5o-22" target="VCItYeYiN6JhUVZrUM5o-6">
          <mxGeometry width="50" height="50" relative="1" as="geometry">
            <mxPoint x="614" y="206" as="sourcePoint" />
            <mxPoint x="526" y="164" as="targetPoint" />
          </mxGeometry>
        </mxCell>
        <mxCell id="iHfhjThB8S9JIC7WLU-c-23" value="&lt;div&gt;&amp;lt;&amp;lt;includes&amp;gt;&amp;gt;&lt;/div&gt;" style="edgeLabel;html=1;align=center;verticalAlign=middle;resizable=0;points=[];" connectable="0" vertex="1" parent="iHfhjThB8S9JIC7WLU-c-22">
          <mxGeometry x="-0.2959" y="3" relative="1" as="geometry">
            <mxPoint as="offset" />
          </mxGeometry>
        </mxCell>
        <mxCell id="LmLvnbeI8t50NYODrYlc-1" value="&lt;div&gt;Partecipa a torneo&lt;/div&gt;" style="ellipse;whiteSpace=wrap;html=1;" vertex="1" parent="1">
          <mxGeometry x="-150" y="190" width="120" height="80" as="geometry" />
        </mxCell>
        <mxCell id="LmLvnbeI8t50NYODrYlc-2" value="" style="endArrow=none;html=1;rounded=0;entryX=1;entryY=0.5;entryDx=0;entryDy=0;" edge="1" parent="1" source="VCItYeYiN6JhUVZrUM5o-1" target="LmLvnbeI8t50NYODrYlc-1">
          <mxGeometry width="50" height="50" relative="1" as="geometry">
            <mxPoint x="150" y="390" as="sourcePoint" />
            <mxPoint x="200" y="340" as="targetPoint" />
          </mxGeometry>
        </mxCell>
        <mxCell id="uLVwWmmB7R3kUK6pXzTy-1" value="Riprendi partita" style="ellipse;whiteSpace=wrap;html=1;" vertex="1" parent="1">
          <mxGeometry x="270" y="480" width="120" height="80" as="geometry" />
        </mxCell>
        <mxCell id="uLVwWmmB7R3kUK6pXzTy-2" value="" style="endArrow=none;dashed=1;html=1;rounded=0;entryX=0.5;entryY=0;entryDx=0;entryDy=0;startArrow=open;startFill=0;exitX=0.433;exitY=1;exitDx=0;exitDy=0;exitPerimeter=0;" edge="1" parent="1" source="VCItYeYiN6JhUVZrUM5o-4" target="uLVwWmmB7R3kUK6pXzTy-1">
          <mxGeometry width="50" height="50" relative="1" as="geometry">
            <mxPoint x="737" y="570" as="sourcePoint" />
            <mxPoint x="560" y="509" as="targetPoint" />
          </mxGeometry>
        </mxCell>
        <mxCell id="uLVwWmmB7R3kUK6pXzTy-3" value="&lt;div&gt;&amp;lt;&amp;lt;extends&amp;gt;&amp;gt;&lt;/div&gt;" style="edgeLabel;html=1;align=center;verticalAlign=middle;resizable=0;points=[];" connectable="0" vertex="1" parent="uLVwWmmB7R3kUK6pXzTy-2">
          <mxGeometry x="-0.2959" y="3" relative="1" as="geometry">
            <mxPoint as="offset" />
          </mxGeometry>
        </mxCell>
        <mxCell id="uLVwWmmB7R3kUK6pXzTy-4" value="" style="endArrow=none;dashed=1;html=1;rounded=0;startArrow=open;startFill=0;exitX=1;exitY=0;exitDx=0;exitDy=0;entryX=0.5;entryY=1;entryDx=0;entryDy=0;" edge="1" parent="1" source="VCItYeYiN6JhUVZrUM5o-3" target="uLVwWmmB7R3kUK6pXzTy-1">
          <mxGeometry width="50" height="50" relative="1" as="geometry">
            <mxPoint x="367" y="460" as="sourcePoint" />
            <mxPoint x="360" y="500" as="targetPoint" />
          </mxGeometry>
        </mxCell>
        <mxCell id="uLVwWmmB7R3kUK6pXzTy-5" value="&lt;div&gt;&amp;lt;&amp;lt;extends&amp;gt;&amp;gt;&lt;/div&gt;" style="edgeLabel;html=1;align=center;verticalAlign=middle;resizable=0;points=[];" connectable="0" vertex="1" parent="uLVwWmmB7R3kUK6pXzTy-4">
          <mxGeometry x="-0.2959" y="3" relative="1" as="geometry">
            <mxPoint as="offset" />
          </mxGeometry>
        </mxCell>
      </root>
    </mxGraphModel>
  </diagram>
</mxfile>
